<?xml version="1.0" standalone="no"?>
<!DOCTYPE svg PUBLIC "-//W3C//DTD SVG 20010904//EN"
 "http://www.w3.org/TR/2001/REC-SVG-20010904/DTD/svg10.dtd">
<svg version="1.0" xmlns="http://www.w3.org/2000/svg"
 width="150.000000pt" height="150.000000pt" viewBox="0 0 150.000000 150.000000"
 preserveAspectRatio="xMidYMid meet">
<metadata>
Created by potrace 1.11, written by Peter Selinger 2001-2013
</metadata>
<g transform="translate(0.000000,150.000000) scale(0.100000,-0.100000)"
fill="#000000" stroke="none">
<path d="M0 911 l0 -589 29 14 c15 8 50 17 77 20 27 4 81 22 120 40 40 18 91
38 115 43 67 15 205 24 220 16 18 -12 167 -17 173 -6 8 12 -16 69 -44 103 -16
21 -30 28 -56 28 -24 0 -34 5 -34 15 0 9 -9 15 -22 15 -30 0 -52 15 -44 29 4
6 2 11 -4 11 -6 0 -8 10 -4 24 3 13 1 27 -5 30 -6 4 -11 14 -11 22 0 12 7 14
30 9 23 -5 30 -3 30 9 0 25 -51 20 -77 -8 -24 -25 -30 -60 -13 -71 13 -8 13
-25 0 -25 -5 0 -10 5 -10 11 0 6 -7 18 -16 26 -8 9 -13 24 -11 34 3 12 -2 19
-17 23 -45 12 -76 137 -40 167 9 7 20 24 25 37 5 13 18 26 28 29 23 6 33 49
15 64 -8 6 -14 17 -14 24 0 16 -28 40 -37 31 -3 -3 1 -14 11 -25 16 -17 16
-19 -4 -24 -19 -5 -20 -8 -10 -27 18 -33 5 -34 -22 -2 -21 25 -26 45 -33 123
-11 130 -10 144 10 189 20 45 40 55 79 41 64 -25 156 -142 156 -200 0 -11 6
-21 12 -23 8 -3 4 -9 -10 -17 -23 -12 -31 -41 -11 -41 8 0 7 -6 -2 -17 -8 -9
-13 -24 -11 -35 2 -10 -2 -18 -7 -18 -6 0 -11 -13 -11 -30 0 -17 5 -30 13 -30
6 0 22 -3 34 -6 21 -6 22 -4 17 25 -4 20 -3 31 5 31 6 0 11 -13 11 -30 0 -20
5 -30 15 -30 11 0 15 11 15 41 0 29 4 39 13 35 6 -3 19 -9 27 -12 24 -8 44
-44 31 -57 -7 -7 -13 -3 -20 14 -6 14 -10 18 -10 8 -1 -9 7 -25 17 -36 16 -19
20 -20 45 -7 22 12 27 21 26 52 -1 27 -3 30 -6 12 -7 -39 -23 -48 -23 -14 0
23 6 34 25 42 27 13 30 10 37 -32 4 -27 28 -33 28 -7 0 11 -5 23 -11 27 -7 4
-7 10 -1 16 15 15 32 0 32 -28 0 -21 3 -24 25 -18 15 4 25 2 25 -5 0 -6 9 -11
20 -11 13 0 20 -7 20 -20 0 -19 -4 -20 -49 -14 -41 5 -52 3 -70 -15 -11 -11
-21 -30 -21 -41 0 -11 -4 -20 -10 -20 -5 0 -10 18 -10 40 0 44 -4 48 -26 25
-9 -8 -11 -15 -6 -15 6 0 10 -10 9 -22 0 -13 3 -48 6 -78 l7 -56 -45 -12 c-52
-14 -55 -25 -19 -63 l26 -27 -24 -22 -23 -23 38 6 c49 8 67 0 67 -27 0 -18 9
-25 39 -35 24 -7 42 -19 46 -31 4 -11 12 -20 20 -20 7 0 15 -18 19 -45 4 -24
12 -48 18 -51 8 -5 9 7 5 39 -7 47 -6 47 23 47 23 0 33 -7 45 -29 15 -29 12
-61 -6 -61 -15 0 -10 -37 5 -43 8 -3 20 0 26 8 6 7 23 18 39 25 16 6 34 22 41
36 8 13 20 24 28 24 12 0 12 -4 -3 -20 -18 -19 -17 -20 14 -26 17 -4 34 -11
37 -15 9 -16 40 -10 59 11 23 25 40 25 65 0 27 -27 55 -27 40 0 -8 15 -6 24 9
39 11 11 21 17 24 15 2 -2 25 4 50 13 32 12 47 23 47 35 0 15 -9 18 -48 18
-27 0 -57 -6 -68 -15 -26 -20 -44 -19 -44 4 0 24 -23 33 -56 21 -35 -14 -44
-13 -44 5 0 21 37 33 82 28 30 -4 42 0 62 20 14 14 39 28 56 32 35 8 40 -6 8
-20 -11 -6 -25 -20 -29 -33 -8 -22 -7 -23 36 -21 45 3 56 14 33 37 -9 9 -9 12
0 12 9 0 12 31 12 110 l0 111 -31 -16 c-41 -22 -61 -13 -53 22 8 34 30 53 61
53 18 0 23 6 23 25 0 20 -5 25 -23 25 -32 0 -61 32 -45 48 20 20 41 15 35 -8
-4 -15 0 -20 14 -20 18 0 19 11 19 285 l0 285 -750 0 -750 0 0 -589z m1040
479 c0 -5 -4 -10 -10 -10 -5 0 -9 -3 -9 -7 3 -20 -2 -26 -11 -13 -8 12 -15 9
-39 -20 -17 -19 -30 -39 -31 -45 0 -5 18 -27 40 -47 33 -31 38 -42 31 -60 -4
-13 -17 -28 -28 -33 -12 -6 -29 -17 -39 -25 -11 -10 -18 -11 -21 -4 -2 6 -15
26 -28 44 -23 31 -23 35 -10 66 8 19 22 50 30 69 19 44 44 74 70 85 28 12 55
12 55 0z m80 -142 c0 -65 -15 -93 -24 -45 -13 63 -15 107 -6 107 5 0 10 8 10
18 0 14 2 15 10 2 5 -8 10 -45 10 -82z m-430 16 c0 -8 -4 -12 -10 -9 -5 3 -10
10 -10 16 0 5 5 9 10 9 6 0 10 -7 10 -16z m107 -26 c-3 -7 -5 -2 -5 12 0 14 2
19 5 13 2 -7 2 -19 0 -25z m-117 -28 c0 -5 -4 -10 -10 -10 -5 0 -10 5 -10 10
0 6 5 10 10 10 6 0 10 -4 10 -10z m112 -39 c2 -48 -19 -61 -30 -20 -7 27 -5
37 7 46 20 14 22 12 23 -26z m-165 -3 c-3 -8 -6 -5 -6 6 -1 11 2 17 5 13 3 -3
4 -12 1 -19z m71 -27 c2 -24 0 -51 -3 -60 -6 -14 -8 -13 -15 4 -5 11 -9 40 -9
63 -1 58 23 51 27 -7z m182 4 c0 -14 -4 -25 -10 -25 -11 0 -14 33 -3 43 11 11
13 8 13 -18z m236 13 c22 -35 9 -118 -16 -103 -10 6 -23 92 -15 105 8 14 22
13 31 -2z m-60 -33 c-7 -26 -26 -30 -33 -8 -4 12 27 47 34 39 3 -3 2 -17 -1
-31z m-206 -35 c0 -8 -25 -20 -41 -20 -5 0 -9 6 -9 14 0 8 10 14 25 14 14 0
25 -4 25 -8z m158 -17 c-10 -2 -26 -2 -35 0 -10 3 -2 5 17 5 19 0 27 -2 18 -5z
m-18 -188 c0 -7 -7 -18 -15 -25 -8 -7 -12 -16 -9 -21 3 -5 0 -9 -6 -9 -6 0 -8
-5 -5 -10 3 -6 -5 -14 -19 -20 -29 -11 -32 -20 -14 -38 9 -9 6 -12 -15 -12
-15 0 -27 5 -27 12 0 6 -7 19 -16 29 -20 22 -13 35 25 42 17 4 32 14 36 27 3
11 13 26 21 35 16 16 44 10 44 -10z m-104 -160 c-4 -12 0 -14 19 -9 13 3 32 1
42 -6 16 -10 16 -11 1 -6 -10 3 -18 1 -18 -4 0 -6 -16 -10 -36 -10 -38 0 -39
-19 -1 -21 16 -1 17 -3 5 -6 -10 -2 -15 -10 -11 -19 3 -8 -1 -14 -10 -14 -8 0
-20 -7 -27 -15 -16 -19 -30 -19 -30 0 0 7 -8 18 -17 24 -16 8 -15 12 10 35 15
14 27 32 27 40 0 15 14 24 39 25 8 1 11 -5 7 -14z m504 -19 c0 -8 -5 -16 -12
-18 -17 -6 -19 -38 -2 -38 8 0 14 -7 14 -15 0 -10 -10 -15 -27 -15 -52 0 -103
-21 -125 -50 -34 -46 -51 -38 -26 13 17 33 33 48 79 70 34 16 59 35 62 47 6
23 37 27 37 6z m-602 -17 c2 -9 -4 -19 -12 -22 -19 -8 -51 17 -42 32 11 17 50
9 54 -10z m348 -185 c-3 -9 -6 -22 -6 -29 0 -17 -27 -27 -33 -12 -7 20 11 57
29 57 11 0 14 -5 10 -16z m191 -37 c4 -7 -5 -8 -25 -4 -18 4 -43 2 -57 -3 -27
-10 -35 3 -10 17 19 11 83 4 92 -10z m-258 -28 c-9 -5 -15 -4 -18 2 -2 6 3 15
10 20 9 5 15 4 18 -2 2 -6 -3 -15 -10 -20z"/>
<path d="M910 1212 c0 -19 36 -59 45 -50 7 7 -25 68 -36 68 -5 0 -9 -8 -9 -18z"/>
<path d="M369 1287 c-18 -19 -20 -29 -13 -72 4 -27 8 -62 8 -77 1 -30 14 -36
34 -16 8 8 15 9 20 3 17 -25 69 -53 82 -45 12 7 11 12 -3 28 -9 10 -17 23 -17
29 0 5 -12 15 -26 22 -20 9 -24 15 -15 25 12 14 -4 76 -19 76 -4 0 -6 8 -3 19
7 28 -24 34 -48 8z"/>
<path d="M467 1253 c-14 -13 -6 -23 19 -23 22 0 25 2 14 15 -14 16 -23 19 -33
8z"/>
<path d="M568 899 c-16 -9 -17 -13 -3 -39 18 -35 22 -37 66 -45 18 -3 36 -11
40 -17 11 -18 20 9 13 39 -13 57 -72 88 -116 62z"/>
<path d="M460 855 c-15 -18 -5 -34 11 -18 8 8 17 5 31 -9 25 -25 31 -19 15 15
-13 30 -38 35 -57 12z"/>
<path d="M634 695 c26 -19 42 -19 26 0 -7 8 -20 15 -29 15 -13 -1 -13 -3 3
-15z"/>
<path d="M633 659 c14 -8 22 -8 30 0 8 8 3 11 -18 11 -26 -1 -28 -2 -12 -11z"/>
<path d="M655 610 c3 -5 10 -10 16 -10 5 0 9 5 9 10 0 6 -7 10 -16 10 -8 0
-12 -4 -9 -10z"/>
<path d="M1461 396 c-44 -16 -50 -32 -17 -47 40 -19 34 -41 -8 -33 -24 4 -42
1 -58 -10 -12 -9 -30 -16 -39 -16 -9 0 -22 -7 -29 -15 -10 -12 -9 -15 8 -15
11 0 22 -5 24 -11 5 -14 38 0 38 17 0 9 11 14 27 14 15 0 42 5 60 12 32 12 33
14 33 65 0 29 -1 53 -2 52 -2 0 -18 -6 -37 -13z"/>
<path d="M1130 331 c0 -12 5 -21 10 -21 6 0 10 6 10 14 0 8 -4 18 -10 21 -5 3
-10 -3 -10 -14z"/>
<path d="M330 300 c-19 -11 -45 -19 -57 -20 -22 0 -67 -46 -58 -60 13 -21 78
-40 138 -40 57 0 68 3 81 22 19 27 21 89 4 106 -18 18 -68 14 -108 -8z"/>
<path d="M1048 266 c-10 -7 -18 -21 -18 -30 0 -13 7 -17 29 -14 16 1 36 -4 46
-12 13 -11 21 -11 36 -2 27 17 35 15 64 -13 27 -27 32 -45 14 -45 -6 0 -9 -9
-6 -20 9 -33 -12 -23 -30 15 -16 34 -36 45 -48 25 -11 -17 -35 -11 -35 10 0
13 -5 18 -15 14 -17 -7 -21 -34 -5 -34 6 0 10 -9 10 -20 0 -25 37 -28 42 -4 2
14 8 12 36 -10 17 -15 32 -36 32 -47 0 -10 6 -19 14 -19 9 0 19 28 30 89 21
114 21 110 -11 111 -64 1 -129 7 -148 13 -11 3 -28 0 -37 -7z"/>
<path d="M1486 231 c-4 -7 -5 -15 -2 -18 9 -9 19 4 14 18 -4 11 -6 11 -12 0z"/>
<path d="M1358 204 c-14 -13 -9 -22 28 -43 37 -22 94 -28 94 -10 0 5 5 7 10 4
6 -3 10 0 10 7 0 7 -9 19 -19 25 -24 15 -113 27 -123 17z"/>
<path d="M1324 127 c-4 -12 -2 -23 5 -25 18 -6 13 -22 -8 -22 -10 0 -21 -7
-25 -15 -3 -8 -14 -15 -24 -15 -10 0 -29 -11 -42 -25 l-23 -25 110 0 c108 0
110 0 121 25 16 35 15 48 -3 41 -10 -4 -15 1 -15 14 0 13 -7 20 -19 20 -10 0
-21 8 -24 18 -7 29 -45 35 -53 9z"/>
<path d="M1456 111 c-10 -15 12 -61 29 -61 11 0 15 10 15 35 0 28 -4 35 -19
35 -11 0 -22 -4 -25 -9z"/>
<path d="M199 56 c-25 -7 -61 -22 -80 -34 l-34 -22 159 0 c157 0 159 0 142 19
-18 20 -97 52 -125 50 -9 0 -37 -6 -62 -13z"/>
<path d="M1141 60 c0 -16 22 -50 33 -50 11 0 6 14 -14 40 -13 16 -20 20 -19
10z"/>
<path d="M705 49 c-12 -6 -26 -19 -33 -30 -11 -18 -9 -19 34 -19 43 0 45 1 42
27 -3 30 -14 36 -43 22z"/>
<path d="M1125 10 c-3 -5 1 -10 9 -10 9 0 16 5 16 10 0 6 -4 10 -9 10 -6 0
-13 -4 -16 -10z"/>
<path d="M1475 10 c-3 -5 1 -10 9 -10 9 0 16 5 16 10 0 6 -4 10 -9 10 -6 0
-13 -4 -16 -10z"/>
</g>
</svg>
